<svg xmlns="http://www.w3.org/2000/svg" width="465" height="224" viewBox="0 0 465 224">
<g>
<path d="M 50.17 79.67 C50.48,67.95 50.64,67.16 53.30,63.67 C54.84,61.65 56.89,60.00 57.85,60.00 C58.81,60.00 60.16,59.44 60.85,58.75 C61.43,58.17 68.45,57.81 77.60,57.65 C77.46,57.76 77.42,57.87 77.50,58.00 C77.84,58.55 80.76,59.00 84.00,59.00 C87.24,59.00 90.16,58.55 90.50,58.00 C90.60,57.84 90.52,57.69 90.26,57.57 C106.02,57.60 122.44,58.12 123.54,59.04 C124.71,60.00 125.00,63.45 125.00,76.17 L 125.00 92.09 L 121.04 91.93 C122.87,91.84 124.01,91.67 123.82,91.49 C122.87,90.54 109.97,90.15 110.55,91.09 C110.66,91.26 111.09,91.42 111.76,91.55 L 110.50 91.50 L 110.85 71.00 L 97.00 71.00 L 97.00 91.85 L 87.00 91.76 L 77.00 91.67 L 77.00 71.00 L 65.06 71.00 L 67.75 70.69 C70.96,70.33 70.86,70.28 67.00,70.38 L 62.50 70.50 L 62.85 79.13 C63.24,88.67 63.21,88.72 56.50,90.65 L 52.50 91.80 L 64.00 92.00 L 49.84 92.00 Z" fill="rgba(19,60,143,1)"/>
<path d="M 51.25 138.36 C50.32,137.97 50.00,133.60 50.00,121.42 L 50.00 105.00 L 64.00 105.00 L 64.00 126.00 L 70.42 126.00 C75.16,126.00 76.41,125.98 77.01,124.71 C77.00,124.81 77.00,124.90 77.00,125.00 C77.00,126.29 77.51,127.00 78.25,126.75 C78.94,126.52 79.50,125.73 79.50,125.00 C79.50,124.27 78.94,123.48 78.25,123.25 C77.90,123.13 77.61,123.23 77.39,123.49 C77.43,123.33 77.47,123.15 77.51,122.96 C77.88,121.28 78.09,117.12 77.97,113.71 C77.86,110.29 77.82,106.94 77.88,106.25 C77.97,105.34 80.73,105.00 88.00,105.00 L 98.00 105.00 L 98.00 115.50 C98.00,106.96 97.80,105.92 96.50,107.00 C94.65,108.53 94.34,124.94 96.12,126.72 C96.74,127.34 97.95,127.57 98.82,127.24 C99.85,126.84 99.98,126.49 99.20,126.23 C99.10,126.20 99.01,126.12 98.92,126.00 L 111.00 126.00 L 111.00 105.00 L 125.00 105.00 L 125.00 116.05 C125.00,128.17 124.29,130.50 119.02,135.50 L 115.87 138.50 L 84.19 138.69 C66.76,138.80 51.94,138.65 51.25,138.36 ZM 369.68 131.55 C363.51,129.35 360.10,125.98 356.46,118.50 C350.21,105.67 356.05,89.66 368.95,84.25 C371.25,83.29 374.84,82.92 379.64,83.17 C385.73,83.47 387.55,84.01 391.16,86.55 C397.03,90.67 400.97,97.33 401.70,104.36 L 402.28 110.00 L 361.00 110.00 L 361.00 112.55 C361.00,117.65 366.61,124.78 372.32,126.94 C378.67,129.34 389.51,126.66 391.95,122.09 C393.29,119.58 396.81,119.33 397.71,121.68 C398.58,123.95 391.42,130.26 386.21,131.82 C381.07,133.36 374.45,133.25 369.68,131.55 ZM 203.22 129.47 C203.73,130.05 204.23,130.56 204.52,130.80 L 204.50 131.50 L 201.25 131.81 L 198.00 132.13 L 198.00 115.58 C198.00,97.36 196.94,92.50 192.30,89.46 C188.84,87.19 182.00,88.28 177.86,91.77 C172.15,96.58 171.05,100.69 171.02,117.25 L 171.00 132.00 L 165.00 132.00 L 164.99 115.75 C164.99,97.56 164.15,93.06 160.22,89.95 C154.53,85.47 144.24,89.73 140.10,98.29 C138.26,102.10 138.00,104.44 138.00,117.32 L 138.00 132.00 L 131.96 132.00 L 132.50 83.50 L 133.24 83.50 C133.33,83.66 133.50,83.86 133.75,84.12 C134.44,84.82 135.00,87.26 135.00,89.53 C135.00,91.81 135.30,93.97 135.67,94.33 C136.73,95.40 137.66,95.12 139.13,93.31 C139.94,92.31 140.01,91.91 139.31,92.33 C139.20,92.40 139.09,92.44 139.00,92.44 L 143.05 88.45 C147.74,83.83 148.29,83.58 154.33,83.19 C162.27,82.69 166.39,84.57 168.76,89.80 C169.00,90.33 169.24,90.86 169.47,91.34 C169.36,91.48 169.23,91.66 169.08,91.91 C168.59,92.68 168.42,93.92 168.70,94.66 C169.31,96.24 170.63,96.40 171.50,95.00 C171.84,94.45 171.64,94.00 171.06,94.00 C170.97,94.00 170.88,93.98 170.79,93.94 C171.15,93.89 172.78,92.28 174.61,90.15 C179.25,84.72 182.71,83.00 189.00,83.00 C195.20,83.00 199.45,85.04 201.50,89.01 C202.86,91.62 203.88,97.09 204.42,103.94 C204.25,103.35 204.03,103.16 203.75,103.25 C201.93,103.85 201.45,127.47 203.22,129.47 ZM 278.40 131.10 C273.03,128.65 270.00,123.75 270.00,117.48 C270.00,113.20 270.42,112.29 273.96,108.92 C276.94,106.09 279.33,104.87 283.61,103.98 C284.88,103.71 285.99,103.52 287.09,103.40 C286.62,103.66 286.33,104.02 286.33,104.50 C286.33,105.44 287.29,106.01 288.92,106.02 C290.34,106.02 292.17,106.47 293.00,107.00 C293.44,107.28 294.03,107.51 294.65,107.68 C286.31,106.85 279.20,108.90 277.03,112.94 C276.37,114.17 276.04,116.06 276.04,117.96 C276.02,117.68 275.95,117.37 275.83,117.03 C275.62,116.41 274.97,116.41 274.00,117.03 C272.67,117.89 272.67,118.11 274.00,118.97 C275.15,119.71 275.97,119.34 276.04,118.30 C276.07,120.11 276.40,121.88 277.03,123.05 C280.11,128.81 292.01,129.47 299.40,124.29 C303.35,121.52 303.51,121.20 303.79,115.32 L 304.00 111.07 C304.00,111.09 304.00,111.10 304.00,111.12 C304.00,112.89 304.25,113.04 305.49,112.01 C306.99,110.76 306.67,109.00 304.94,109.00 C304.48,109.00 304.10,109.74 304.02,110.72 L 304.09 109.22 L 297.50 108.07 C297.33,108.04 297.17,108.02 297.00,107.99 C297.60,107.96 298.00,107.82 298.00,107.54 C298.00,107.29 297.02,106.16 295.81,105.04 C295.04,104.32 293.93,103.78 292.73,103.42 C294.85,103.63 297.41,104.04 300.89,104.66 L 303.68 105.17 C303.68,106.03 303.73,106.70 303.83,106.98 C304.36,108.59 307.01,106.18 306.96,104.13 C306.95,103.23 306.32,101.41 305.59,100.08 C304.35,97.85 304.25,97.74 303.92,101.05 L 303.80 99.63 C303.46,95.51 302.70,93.31 300.98,91.48 C299.87,90.30 298.48,89.37 296.92,88.70 C299.49,89.53 300.00,89.42 300.00,88.38 C300.00,87.62 299.55,87.00 299.00,87.00 C298.45,87.00 298.00,86.10 298.00,85.00 C298.00,84.47 297.94,84.07 297.70,83.78 C299.85,84.22 301.64,84.84 302.66,85.59 C307.37,89.11 309.51,92.33 310.40,99.70 C310.18,99.59 309.87,99.90 309.45,100.47 C308.63,101.56 308.26,103.13 308.62,103.97 C308.99,104.81 309.50,108.31 309.76,111.75 C310.02,115.19 310.41,118.00 310.62,118.00 C310.79,118.00 310.93,114.96 310.96,110.86 C310.97,111.63 310.97,112.42 310.98,113.25 C310.99,121.07 311.39,126.00 312.00,126.00 C312.55,126.00 313.00,127.38 313.00,129.06 C313.00,131.91 312.77,132.10 309.81,131.81 C307.12,131.55 306.48,130.96 305.75,128.13 L 305.38 126.70 C306.19,128.16 306.39,128.05 307.22,126.56 C308.35,124.55 306.85,122.36 305.08,123.45 C304.54,123.78 304.38,124.26 304.60,125.03 L 302.69 126.82 C296.52,132.61 285.87,134.49 278.40,131.10 ZM 359.20 106.80 C360.51,108.11 382.36,108.48 391.75,107.35 C396.26,106.81 396.99,106.42 396.92,104.61 C396.88,103.45 396.62,103.06 396.34,103.75 C396.29,103.87 396.18,103.97 395.99,104.07 C395.88,100.72 393.30,95.72 390.00,92.50 C386.24,88.83 385.51,88.54 379.23,88.20 C373.46,87.88 372.02,88.16 369.09,90.16 C364.50,93.31 362.07,96.80 361.34,101.27 L 361.01 103.33 C361.00,103.23 361.00,103.14 361.00,103.03 C361.00,101.69 360.52,101.25 359.50,101.64 C357.70,102.33 357.54,105.14 359.20,106.80 ZM 331.16 131.36 C329.33,130.43 327.41,128.59 326.91,127.27 C326.78,126.91 326.65,126.00 326.53,124.66 C327.31,121.18 327.63,80.02 326.84,78.77 C326.31,77.94 326.03,78.44 326.02,80.19 C326.01,81.67 325.57,83.15 325.04,83.47 C324.52,83.80 324.34,84.72 324.65,85.53 C324.97,86.37 324.63,87.01 323.86,87.03 C322.90,87.05 323.02,87.46 324.25,88.39 C324.42,88.52 324.58,88.67 324.72,88.84 C324.04,88.76 323.04,88.59 322.50,88.46 C322.34,88.42 322.13,88.38 321.90,88.34 C321.96,87.82 322.00,86.98 322.00,86.03 C322.00,84.86 321.90,84.14 321.64,83.78 C322.25,83.74 322.92,83.69 323.50,83.64 C325.30,83.51 325.53,82.68 325.79,75.25 L 326.08 67.00 L 332.00 67.00 L 332.00 74.44 C332.00,80.95 332.26,82.80 335.34,83.31 C335.33,83.32 335.32,83.32 335.32,83.32 C334.64,83.73 333.48,83.10 332.60,81.84 C331.21,79.86 331.01,79.82 330.40,81.39 C330.03,82.35 330.22,83.62 330.81,84.21 C331.41,84.81 331.69,86.69 331.44,88.40 C331.19,90.10 331.25,90.94 331.57,90.25 C331.64,90.10 331.79,89.96 332.00,89.83 L 332.00 104.95 C332.00,115.01 332.43,121.86 333.17,123.48 C334.60,126.61 338.32,127.70 342.37,126.16 C345.50,124.98 346.95,125.81 346.98,128.77 C347.02,131.91 335.84,133.73 331.16,131.36 ZM 253.00 95.44 C253.00,97.40 253.34,98.98 253.75,98.95 C254.01,98.93 254.58,98.46 255.32,97.70 C254.82,98.31 254.29,98.93 253.74,99.58 C250.68,103.19 247.08,107.47 243.88,111.29 C244.04,111.06 244.21,110.79 244.41,110.50 C245.48,108.86 245.81,107.09 245.37,105.32 L 244.71 102.72 L 257.01 88.00 L 241.00 88.00 C225.67,88.00 225.00,87.92 225.00,86.00 C225.00,84.90 225.45,83.98 226.00,83.95 C226.55,83.92 234.88,83.90 244.50,83.90 C251.66,83.90 258.10,83.91 261.15,83.93 C261.05,84.14 261.00,84.42 261.00,84.78 C260.99,86.94 255.19,93.24 253.93,92.46 C253.42,92.14 253.00,93.48 253.00,95.44 ZM 224.01 129.77 C224.02,128.36 229.49,121.00 239.44,109.04 C238.53,110.41 238.79,110.87 239.83,111.67 C241.36,112.83 242.05,113.18 242.87,112.49 C240.59,115.21 238.58,117.63 237.20,119.31 L 230.90 126.95 L 238.88 127.08 C233.21,127.23 230.00,127.55 230.00,128.00 C230.00,128.21 229.97,128.38 230.03,128.52 C230.28,129.21 232.34,129.26 248.00,129.88 C255.27,130.17 261.54,130.35 263.35,130.32 C262.73,131.46 259.55,131.55 243.75,131.77 L 224.00 132.04 ZM 215.25 129.42 C216.25,130.50 216.55,126.30 216.77,108.15 C216.88,98.95 216.92,93.08 216.81,89.35 C216.97,92.95 217.00,98.71 217.00,107.97 L 217.00 132.00 L 209.96 132.00 L 210.08 122.15 C210.14,130.26 210.48,130.67 211.66,129.48 C212.98,128.17 213.05,127.65 212.03,127.02 C211.14,126.47 210.96,125.19 211.47,122.86 C213.01,115.71 213.09,105.43 211.64,99.50 C210.99,96.88 210.63,95.43 210.42,96.22 C210.66,86.41 211.06,84.37 212.11,83.70 C212.85,83.23 213.98,83.03 214.86,83.18 C213.45,86.24 213.70,127.76 215.25,129.42 ZM 198.00 117.60 C198.00,129.64 198.17,130.98 199.50,129.64 C200.66,128.48 201.00,125.54 201.00,116.68 C201.00,107.41 200.71,105.10 199.50,104.64 C198.21,104.14 198.00,105.98 198.00,117.60 ZM 215.25 70.50 C216.47,71.89 216.84,72.28 216.95,70.99 C216.80,73.00 216.15,73.00 213.44,73.00 L 209.89 73.00 L 210.06 70.57 C210.18,71.42 210.44,71.80 210.75,71.43 C211.16,70.93 211.86,70.25 212.30,69.92 C212.74,69.59 212.40,68.75 211.55,68.04 C210.91,67.51 210.52,67.28 210.30,67.45 C210.58,64.69 211.07,64.44 213.75,64.19 C216.99,63.87 217.00,63.89 217.00,68.43 C217.00,65.25 216.83,65.02 215.50,66.36 C213.68,68.18 213.65,68.68 215.25,70.50 ZM 335.77 83.38 C336.63,83.48 337.69,83.50 338.98,83.50 C339.86,83.50 340.58,83.52 341.17,83.58 C341.06,83.76 341.00,84.02 341.00,84.36 C341.00,86.50 339.31,87.30 336.35,86.55 C334.15,86.00 333.99,85.71 335.16,84.27 C335.49,83.86 335.69,83.56 335.77,83.38 ZM 375.36 86.50 C374.02,87.83 374.37,88.00 378.50,88.00 C382.63,88.00 382.98,87.83 381.64,86.50 C380.82,85.68 379.40,85.00 378.50,85.00 C377.60,85.00 376.18,85.68 375.36,86.50 ZM 326.01 73.04 L 326.01 77.50 L 327.54 74.57 C328.91,71.94 328.91,71.48 327.53,70.11 C326.16,68.73 326.00,69.02 326.01,73.04 ZM 290.44 83.04 C286.58,83.15 282.64,84.00 279.54,85.19 C280.56,84.72 281.67,84.28 282.84,83.89 C284.76,83.26 287.54,82.99 290.44,83.04 ZM 263.04 83.95 C263.96,84.01 264.24,84.59 263.83,85.77 C263.84,85.07 263.53,84.37 263.04,83.95 ZM 276.03 91.87 C277.05,91.72 278.40,91.13 280.19,90.09 C283.62,88.12 287.54,87.21 291.28,87.44 C287.62,87.25 283.67,88.12 280.19,90.11 C278.39,91.14 277.04,91.72 276.03,91.87 ZM 392.45 104.70 C389.66,104.91 385.19,105.00 378.42,105.00 C384.14,105.00 389.24,104.88 392.45,104.70 ZM 169.99 92.46 C170.35,93.22 170.62,93.76 170.72,93.91 C170.34,93.69 170.05,93.13 169.99,92.46 ZM 319.09 86.74 C319.03,86.51 319.00,86.26 319.00,86.00 C319.00,85.09 319.39,84.28 319.91,84.00 C319.20,84.63 318.91,85.77 319.09,86.74 ZM 326.00 105.28 C325.99,99.02 325.90,94.90 325.69,92.35 C325.92,94.74 325.99,98.64 326.00,105.28 ZM 137.08 84.15 C137.40,84.61 137.56,85.38 137.68,86.65 C137.56,85.43 137.39,84.66 137.08,84.15 ZM 343.57 84.62 C343.69,84.83 343.78,85.08 343.83,85.38 C343.84,85.41 343.84,85.44 343.85,85.46 C343.79,85.15 343.69,84.87 343.57,84.62 ZM 273.56 90.13 C273.57,90.27 273.60,90.40 273.65,90.53 C273.64,90.51 273.64,90.49 273.63,90.47 C273.59,90.36 273.56,90.25 273.56,90.13 Z" fill="rgba(18,124,199,1)"/>
<path d="M 273.67 90.57 C272.40,87.27 282.22,83.05 291.25,83.02 C297.34,83.00 298.00,83.20 298.00,85.00 C298.00,86.10 298.45,87.00 299.00,87.00 C299.55,87.00 300.00,87.62 300.00,88.38 C300.00,89.55 299.35,89.54 295.82,88.33 C290.91,86.63 285.05,87.30 280.19,90.09 C276.25,92.37 274.41,92.50 273.67,90.57 ZM 359.20 106.80 C357.54,105.14 357.70,102.33 359.50,101.64 C360.52,101.25 361.00,101.69 361.00,103.03 C361.00,104.91 361.76,105.00 378.42,105.00 C391.41,105.00 395.96,104.68 396.34,103.75 C396.62,103.06 396.88,103.45 396.92,104.61 C396.99,106.42 396.26,106.81 391.75,107.35 C382.36,108.48 360.51,108.11 359.20,106.80 ZM 215.25 129.42 C213.64,127.70 213.43,83.00 215.03,83.00 C216.89,83.00 217.04,85.27 216.77,108.15 C216.55,126.30 216.25,130.50 215.25,129.42 ZM 248.00 129.88 C232.34,129.26 230.28,129.21 230.03,128.52 C229.97,128.38 230.00,128.21 230.00,128.00 C230.00,127.37 236.18,127.00 246.53,127.00 C260.51,127.00 263.15,127.24 263.65,128.54 C263.98,129.39 264.08,130.18 263.87,130.29 C263.67,130.41 256.52,130.22 248.00,129.88 ZM 198.00 117.60 C198.00,105.98 198.21,104.14 199.50,104.64 C200.71,105.10 201.00,107.41 201.00,116.68 C201.00,125.54 200.66,128.48 199.50,129.64 C198.17,130.98 198.00,129.64 198.00,117.60 ZM 203.22 129.47 C201.45,127.47 201.93,103.85 203.75,103.25 C204.71,102.93 205.00,106.10 205.00,116.92 C205.00,124.66 204.89,130.98 204.75,130.96 C204.61,130.94 203.92,130.27 203.22,129.47 ZM 210.08 112.32 C210.17,93.63 210.18,93.54 211.64,99.50 C213.09,105.43 213.01,115.71 211.47,122.86 C210.96,125.19 211.14,126.47 212.03,127.02 C213.05,127.65 212.98,128.17 211.66,129.48 C210.11,131.03 210.01,129.87 210.08,112.32 ZM 326.00 107.53 C326.00,91.74 325.80,89.57 324.25,88.39 C323.02,87.46 322.90,87.05 323.86,87.03 C324.63,87.01 324.97,86.37 324.65,85.53 C324.34,84.72 324.52,83.80 325.04,83.47 C325.57,83.15 326.01,81.67 326.02,80.19 C326.03,78.44 326.31,77.94 326.84,78.77 C327.66,80.06 327.29,124.05 326.45,124.88 C326.20,125.13 326.00,117.32 326.00,107.53 ZM 96.12 126.72 C94.34,124.94 94.65,108.53 96.50,107.00 C97.82,105.91 98.00,106.98 98.00,115.79 C98.00,122.71 98.37,125.96 99.20,126.23 C99.98,126.49 99.85,126.84 98.82,127.24 C97.95,127.57 96.74,127.34 96.12,126.72 ZM 331.44 88.40 C331.69,86.69 331.41,84.81 330.81,84.21 C330.22,83.62 330.03,82.35 330.40,81.39 C331.01,79.82 331.21,79.86 332.60,81.84 C333.48,83.10 334.64,83.73 335.32,83.32 C336.03,82.90 335.97,83.27 335.16,84.27 C333.99,85.71 334.15,86.00 336.35,86.55 C339.31,87.30 341.00,86.50 341.00,84.36 C341.00,82.28 343.41,83.22 343.85,85.46 C344.33,87.95 342.31,88.97 336.83,88.98 C334.10,88.99 331.92,89.52 331.57,90.25 C331.25,90.94 331.19,90.10 331.44,88.40 ZM 253.00 95.44 C253.00,93.48 253.42,92.14 253.93,92.46 C255.19,93.24 260.99,86.94 261.00,84.78 C261.00,83.64 261.52,83.26 262.55,83.66 C263.41,83.99 263.97,85.08 263.80,86.09 C263.48,88.05 255.02,98.87 253.75,98.95 C253.34,98.98 253.00,97.40 253.00,95.44 ZM 239.83 111.67 C238.32,110.51 238.46,110.05 241.43,106.51 L 244.69 102.63 L 245.37 105.32 C245.81,107.09 245.48,108.86 244.41,110.50 C242.55,113.33 242.16,113.44 239.83,111.67 ZM 135.67 94.33 C135.30,93.97 135.00,91.81 135.00,89.53 C135.00,87.26 134.44,84.82 133.75,84.12 C132.74,83.08 132.98,82.89 135.00,83.17 C137.22,83.46 137.53,84.04 137.81,88.27 C138.02,91.65 138.46,92.84 139.31,92.33 C140.01,91.91 139.94,92.31 139.13,93.31 C137.66,95.12 136.73,95.40 135.67,94.33 ZM 293.00 107.00 C292.17,106.47 290.34,106.02 288.92,106.02 C287.29,106.01 286.33,105.44 286.33,104.50 C286.33,102.16 293.14,102.55 295.81,105.04 C297.02,106.16 298.00,107.29 298.00,107.54 C298.00,108.37 294.54,107.99 293.00,107.00 ZM 309.76 111.75 C309.50,108.31 308.99,104.81 308.62,103.97 C308.26,103.13 308.63,101.56 309.45,100.47 C310.80,98.68 310.94,99.39 310.97,108.25 C310.99,113.61 310.83,118.00 310.62,118.00 C310.41,118.00 310.02,115.19 309.76,111.75 ZM 303.83 106.98 C303.62,106.37 303.64,104.03 303.85,101.76 C304.24,97.73 304.27,97.70 305.59,100.08 C306.32,101.41 306.95,103.23 306.96,104.13 C307.01,106.18 304.36,108.59 303.83,106.98 ZM 375.36 86.50 C376.18,85.68 377.60,85.00 378.50,85.00 C379.40,85.00 380.82,85.68 381.64,86.50 C382.98,87.83 382.63,88.00 378.50,88.00 C374.37,88.00 374.02,87.83 375.36,86.50 ZM 326.01 73.04 C326.00,69.02 326.16,68.73 327.53,70.11 C328.91,71.48 328.91,71.94 327.54,74.57 L 326.01 77.50 ZM 320.25 88.34 C318.51,87.63 318.68,84.34 320.50,83.64 C321.63,83.21 322.00,83.80 322.00,86.03 C322.00,87.66 321.89,88.96 321.75,88.92 C321.61,88.88 320.94,88.62 320.25,88.34 ZM 215.25 70.50 C213.65,68.68 213.68,68.18 215.50,66.36 C216.83,65.02 217.00,65.25 217.00,68.43 C217.00,72.44 216.98,72.47 215.25,70.50 ZM 305.12 126.22 C304.31,124.71 304.30,123.93 305.08,123.45 C306.85,122.36 308.35,124.55 307.22,126.56 C306.31,128.19 306.16,128.17 305.12,126.22 ZM 168.70 94.66 C168.42,93.92 168.59,92.68 169.08,91.91 C169.80,90.77 169.97,90.84 169.98,92.25 C169.99,93.21 170.48,94.00 171.06,94.00 C171.64,94.00 171.84,94.45 171.50,95.00 C170.63,96.40 169.31,96.24 168.70,94.66 ZM 77.00 125.00 C77.00,123.71 77.51,123.00 78.25,123.25 C78.94,123.48 79.50,124.27 79.50,125.00 C79.50,125.73 78.94,126.52 78.25,126.75 C77.51,127.00 77.00,126.29 77.00,125.00 ZM 210.00 69.54 C210.00,67.14 210.21,66.93 211.55,68.04 C212.40,68.75 212.74,69.59 212.30,69.92 C211.86,70.25 211.16,70.93 210.75,71.43 C210.34,71.93 210.00,71.08 210.00,69.54 ZM 304.00 111.12 C304.00,109.96 304.42,109.00 304.94,109.00 C306.67,109.00 306.99,110.76 305.49,112.01 C304.25,113.04 304.00,112.89 304.00,111.12 ZM 274.00 118.97 C272.67,118.11 272.67,117.89 274.00,117.03 C274.97,116.41 275.62,116.41 275.83,117.03 C276.49,118.95 275.54,119.96 274.00,118.97 Z" fill="rgba(22,127,202,1)"/>
<path d="M 56.50 90.65 C63.21,88.72 63.24,88.67 62.85,79.13 L 62.50 70.50 L 67.00 70.38 C70.86,70.28 70.96,70.33 67.75,70.69 L 64.00 71.12 L 64.00 92.00 L 52.50 91.80 ZM 77.50 58.00 C77.11,57.37 79.51,57.00 84.00,57.00 C88.49,57.00 90.89,57.37 90.50,58.00 C90.16,58.55 87.24,59.00 84.00,59.00 C80.76,59.00 77.84,58.55 77.50,58.00 ZM 110.55 91.09 C109.97,90.15 122.87,90.54 123.82,91.49 C124.10,91.77 121.36,92.00 117.73,92.00 C114.09,92.00 110.86,91.59 110.55,91.09 Z" fill="rgba(26,65,145,1)"/>
<path d="M 157.67 165.33 C156.21,163.87 157.12,162.99 159.04,164.02 C161.45,165.31 165.00,164.42 165.00,162.53 C165.00,161.80 163.40,160.25 161.43,159.09 C158.52,157.38 157.93,156.49 158.18,154.24 C158.46,151.85 158.93,151.50 161.92,151.50 C163.80,151.50 165.50,151.99 165.69,152.58 C165.92,153.25 164.95,153.50 163.15,153.23 C157.95,152.47 158.17,155.59 163.49,158.10 C168.89,160.66 167.58,166.00 161.54,166.00 C159.78,166.00 158.03,165.70 157.67,165.33 ZM 192.00 159.50 C192.00,153.73 191.78,153.00 190.06,153.00 C188.99,153.00 187.84,152.55 187.50,152.00 C187.12,151.38 188.99,151.00 192.44,151.00 C195.50,151.00 198.00,151.45 198.00,152.00 C198.00,152.55 197.10,153.00 196.00,153.00 C194.21,153.00 194.00,153.67 194.00,159.50 C194.00,163.17 193.56,166.00 193.00,166.00 C192.44,166.00 192.00,163.17 192.00,159.50 ZM 220.65 164.17 C218.33,161.60 218.52,155.48 221.00,153.00 C225.25,148.75 231.11,151.81 231.29,158.39 C231.48,164.86 224.64,168.57 220.65,164.17 ZM 227.41 163.69 C229.21,162.38 229.92,156.30 228.54,154.07 C227.65,152.63 223.69,152.71 222.20,154.20 C220.32,156.08 220.69,162.72 222.75,163.92 C225.03,165.25 225.29,165.24 227.41,163.69 ZM 254.00 158.50 L 254.00 151.00 L 257.80 151.00 C263.67,151.00 266.00,154.86 262.34,158.52 C260.79,160.07 260.79,160.38 262.39,163.09 C263.34,164.69 263.65,166.00 263.08,166.00 C262.52,166.00 261.35,164.65 260.50,163.00 C259.65,161.35 258.29,160.00 257.47,160.00 C256.50,160.00 256.00,161.02 256.00,163.00 C256.00,164.65 255.55,166.00 255.00,166.00 C254.42,166.00 254.00,162.83 254.00,158.50 ZM 261.50 155.50 C261.50,154.06 260.73,153.41 258.75,153.18 C256.37,152.91 256.00,153.22 256.00,155.50 C256.00,157.78 256.37,158.09 258.75,157.82 C260.73,157.59 261.50,156.94 261.50,155.50 ZM 286.21 158.75 L 286.50 151.50 L 290.75 151.19 C293.26,151.01 295.00,151.32 295.00,151.94 C295.00,152.52 293.39,153.00 291.43,153.00 C288.30,153.00 287.90,153.28 288.18,155.24 C288.40,156.81 289.40,157.68 291.50,158.13 L 294.50 158.76 L 291.25 158.88 C288.48,158.98 288.00,159.37 288.00,161.50 C288.00,163.69 288.43,164.00 291.50,164.00 C293.42,164.00 295.00,164.45 295.00,165.00 C295.00,165.55 292.96,166.00 290.46,166.00 L 285.91 166.00 L 286.21 158.75 ZM 59.50 159.00 C59.09,158.34 74.49,158.00 104.94,158.00 C134.98,158.00 151.00,158.35 151.00,159.00 C151.00,159.65 135.19,160.00 105.56,160.00 C76.34,160.00 59.90,159.64 59.50,159.00 ZM 301.00 159.00 C301.00,158.35 317.02,158.00 347.06,158.00 C377.51,158.00 392.91,158.34 392.50,159.00 C392.10,159.64 375.66,160.00 346.44,160.00 C316.81,160.00 301.00,159.65 301.00,159.00 Z" fill="rgba(48,48,48,1)"/>
</g>
</svg>